<?xml version="1.0" encoding="iso-8859-1"?>
<!-- Generator: Adobe Illustrator 16.0.4, SVG Export Plug-In . SVG Version: 6.00 Build 0)  -->
<!DOCTYPE svg PUBLIC "-//W3C//DTD SVG 1.1//EN" "http://www.w3.org/Graphics/SVG/1.1/DTD/svg11.dtd">
<svg version="1.1" id="Layer_1" xmlns="http://www.w3.org/2000/svg" xmlns:xlink="http://www.w3.org/1999/xlink" x="0px" y="0px"
	 width="80px" height="80px" viewBox="0 0 80 80" style="enable-background:new 0 0 80 80;" xml:space="preserve">
<g>
	<path style="opacity:0.35;" d="M63.943,29.345C63.71,28.99,56.05,12.832,56.05,12.832c-0.201-0.074-0.398-0.098-0.592-0.096
		c-0.309-0.279-0.791-0.531-1.496-0.773c-2.625-0.898-5.395-1.559-7.875-1.559c-0.695,0-1.404,0.02-2.122,0.051
		c0.07-0.115,0.125-0.217,0.157-0.301c0.473-1.262-1.104-1.42-2.129-3.312c0,0-6.268-1.371-11.985,0.709
		c-2.603,0.947-3.785,3.074-3.785,3.074s-0.238,1.016-0.697,2c-1.13,0.266-2.557,0.838-4.279,1.992c0,0-0.032,0.094-0.086,0.273
		c-0.198-0.006-0.399,0.021-0.604,0.104c0,0-6.513,14.709-6.665,15.059c-0.455,1.035,1.608,6.59,5.43,8.83
		c-0.031,5.004,0,10.848,0.294,16.102c0.465,8.322-0.873,17.088-0.873,17.088s3.195,2.211,11.493,3.096
		c5.227,0.557,11.979-0.213,17.225-1.072c1.303-0.213,1.461-6.598,2.531-6.803c1.305-0.25,3.455,5.686,4.262,5.51
		c0.959-0.211,1.508-0.344,1.508-0.344s-0.701-1.242-0.979-6.287c0,0-1.75-17.967-2.111-29.469c1.064,1.943,2.084,3.605,2.432,3.742
		C60.085,42.425,66.164,32.736,63.943,29.345z M27.729,12.457c0.156-0.178,0.312-0.365,0.465-0.568
		c0.04-0.055,0.065-0.096,0.103-0.146c0.075,0.025,0.151,0.053,0.214,0.068c0.412,0.09,0.812,0.326,1.131,0.637
		c-0.653,0.139-1.027,0.227-1.027,0.227S28.311,12.527,27.729,12.457z"/>
	<path style="fill:#FFFFFF;stroke:#000000;stroke-width:0.624;stroke-miterlimit:10;" d="M22.312,13.24
		c0,0-6.513,14.707-6.665,15.059c-0.556,1.266,2.649,9.297,8.238,9.752c0.794,0.064,4.604-8.355,4.65-9.281
		C28.691,25.568,26.029,11.746,22.312,13.24z"/>
	<path style="fill:none;stroke:#9D9D9C;stroke-width:0.6239;stroke-linecap:round;stroke-miterlimit:10;" d="M24.136,37.167
		c0,0-5.258-1.529-7.288-8.992"/>
	<path style="fill:#808080;stroke:#000000;stroke-width:0.624;stroke-miterlimit:10;" d="M20.785,70.546
		c0,0,5.203,3.555,21.331,3.555c4.245,0,13.335-0.74,14.323-3.898c1.166-3.736-3.055-15.746-3.262-17.131l-8.986,2.174
		L20.785,70.546z"/>
	<path style="fill:#808080;stroke:#000000;stroke-width:0.624;stroke-miterlimit:10;" d="M20.785,70.546
		c0,0,5.203,3.555,21.331,3.555c4.245,0,13.335-0.74,14.323-3.898c1.166-3.736-3.055-15.746-3.262-17.131l-8.986,2.174
		L20.785,70.546z"/>
	<path style="fill:#FFFFFF;stroke:#000000;stroke-width:0.624;stroke-linejoin:round;stroke-miterlimit:10;" d="M23.001,12.861
		c0,0-1.834,5.379-1.834,14.553c0,4.889-0.328,16.322,0.204,25.816c0.466,8.32-0.873,17.086-0.873,17.086s3.195,2.213,11.493,3.098
		c5.227,0.557,11.979-0.213,17.225-1.072c1.303-0.213,1.461-6.598,2.533-6.803c1.303-0.252,3.453,5.684,4.262,5.508
		c0.959-0.209,1.508-0.344,1.508-0.344s-0.703-1.24-0.98-6.287c0,0-2.826-29.004-2.037-36.9c-1.715-12.84,6.844-15.381,1.215-17.307
		c-2.623-0.9-5.395-1.559-7.875-1.559c-7.795,0-17.472,2.27-17.472,2.27S27.82,9.632,23.001,12.861z"/>
	<path style="fill:#FFFFFF;stroke:#000000;stroke-width:0.624;stroke-linejoin:round;stroke-miterlimit:10;" d="M27.978,8.871
		c0,0-0.788,3.393-2.286,3.785c-1.498,0.395,1.656,0.947,4.257-2.523C32.551,6.664,28.767,8.24,27.978,8.871z"/>
	<path style="fill:#FFFFFF;" d="M43.748,5.085c0,0-6.268-1.371-11.985,0.711c-2.602,0.947-3.785,3.074-3.785,3.074
		s1.578,1.025,2.288,1.184s1.418,0.709,1.655,1.42c0.238,0.709,0.237,3.547,0.867,4.414C33.418,16.757,44.808,15.457,43.748,5.085z"
		/>
	<path style="fill:#FFFFFF;stroke:#000000;stroke-width:0.624;stroke-linejoin:round;stroke-miterlimit:10;" d="M43.748,5.085
		c0,0-7.175,2.998-8.042,3.549c-0.868,0.553,3.864,3.074,4.179,4.652c0.315,1.578,5.519-3.627,5.992-4.889
		S44.773,6.978,43.748,5.085z"/>
	<path style="fill:#FFFFFF;stroke:#000000;stroke-width:0.624;stroke-linejoin:round;stroke-miterlimit:10;" d="M28.135,9.187
		c0,0,1.892,0.787,2.602,0.945c0.709,0.158,1.104,0.789,1.262,1.814c0.159,1.025,0.158,2.996,0.63,3.627
		c0.474,0.631,1.814,2.682,1.814,2.682l-0.474,2.129c0,0-2.364-2.209-2.995-3.549c-0.63-1.34-0.395-3.391-1.026-4.572
		C29.318,11.08,29.476,9.976,28.135,9.187z"/>
	<path style="fill:#FFFFFF;stroke:#000000;stroke-width:0.624;stroke-linejoin:round;stroke-miterlimit:10;" d="M35.76,8.638
		c0,0-1.869,1.889-1.869,2.441c0,0.551-0.552,2.918-0.709,3.705c-0.158,0.789-0.788,3.785-0.788,4.574s-0.079,4.178-0.079,4.178
		h2.208c0,0-0.158-3.705-0.079-5.045c0.079-1.342,0.473-2.996,0.394-4.021s0.71-3.076,0.71-3.785S35.287,9.031,35.76,8.638z"/>
	<path style="fill:none;stroke:#000000;stroke-width:0.624;stroke-linejoin:round;stroke-miterlimit:10;" d="M43.748,5.085
		c0,0-4.357-1.08-10.049,0.152c-5.692,1.236-5.566,3.549-5.832,3.785"/>
	<path style="fill:#FFFFFF;stroke:#000000;stroke-width:0.624;stroke-miterlimit:10;" d="M57.806,11.078
		c0,0,7.658,16.158,7.891,16.514c2.223,3.389-3.855,13.08-8.838,11.1c-0.822-0.326-5.385-9.135-5.465-10.16
		C51.117,24.98,53.628,9.537,57.806,11.078z"/>
	<path style="fill:#DADADA;" d="M56.845,38.337c0,0-0.852-1.02-0.91-2.426c-0.141-3.332,1.572-8.801,9.689-7.969
		C67.23,31.324,61.439,40.269,56.845,38.337z"/>
	<path style="fill:none;stroke:#000000;stroke-width:0.624;stroke-miterlimit:10;" d="M56.785,38.517c0,0-0.938-1.273-0.85-3.006
		c0.18-3.58,2.385-8.93,9.805-7.709"/>
	<path style="fill:none;stroke:#9D9D9C;stroke-width:0.6239;stroke-linecap:round;stroke-miterlimit:10;" d="M54.804,33.568
		c0.086-0.26,0.287-5.129,4.695-6.783c3.479-1.305,4.783-0.348,4.783-0.348"/>
</g>
<rect y="0" style="fill:none;" width="80" height="80"/>
<g>
</g>
<g>
</g>
<g>
</g>
<g>
</g>
<g>
</g>
<g>
</g>
<g>
</g>
<g>
</g>
<g>
</g>
<g>
</g>
<g>
</g>
<g>
</g>
<g>
</g>
<g>
</g>
<g>
</g>
</svg>
