<?xml version="1.0" encoding="iso-8859-1"?>
<!-- Generator: Adobe Illustrator 16.0.4, SVG Export Plug-In . SVG Version: 6.00 Build 0)  -->
<!DOCTYPE svg PUBLIC "-//W3C//DTD SVG 1.1//EN" "http://www.w3.org/Graphics/SVG/1.1/DTD/svg11.dtd">
<svg version="1.1" id="Layer_1" xmlns="http://www.w3.org/2000/svg" xmlns:xlink="http://www.w3.org/1999/xlink" x="0px" y="0px"
	 width="80px" height="80px" viewBox="0 0 80 80" style="enable-background:new 0 0 80 80;" xml:space="preserve">
<g>
	<path style="fill:#FFFFFF;" d="M77.489,32.299c-3.893-1.582-9.219-4.039-11.484-5.174c-2.955-1.475-4.971-9.266-17.326-9.533
		c-12.357-0.27-28.742-1.885-31.158,3.49c-2.418,5.371-5.104,5.24-6.447,6.043c0,0-4.189,2.303-8.49,4.346V77.6h74.902
		L77.489,32.299z"/>
	<path style="fill:none;stroke:#000000;stroke-width:0.624;stroke-miterlimit:10;" d="M77.489,27.299
		c-3.893-1.582-9.219-4.039-11.484-5.174c-2.955-1.475-4.971-9.266-17.326-9.533c-12.357-0.27-28.742-1.885-31.158,3.49
		c-2.418,5.371-5.104,5.24-6.447,6.043c0,0-4.236,2.33-8.562,4.379"/>
	<path style="fill:#FFFFFF;" d="M23.045,29.499c0,0-12.467-14.516,1.029-15.371c13.488-0.855,35.863-3.928,34.84,4.1
		c-1.025,8.023-10.76,10.59-13.492,18.789c-2.734,8.195-7.859,9.902-9.908,4.436C33.465,35.991,32.954,29.325,23.045,29.499z"/>
	<path style="fill:#808080;stroke:#000000;stroke-width:0.624;stroke-miterlimit:10;" d="M29.227,26.426
		c0,0,1.826,2.432,1.623,4.664c-0.203,2.229-0.488,8.998,0.928,10.414c1.422,1.422,6.086,10.146,6.492,13.795
		c0.406,3.65,2.842-12.779,2.842-12.779s-2.031-2.635-3.045-4.057c-1.012-1.416-1.137-5.951-1.74-7.777
		c-0.609-1.828-0.812-3.447-3.248-3.854C30.647,26.426,29.227,26.426,29.227,26.426z"/>
	<path style="fill:#FFFFFF;stroke:#000000;stroke-width:0.624;stroke-linejoin:round;stroke-miterlimit:10;" d="M47.383,27.141
		c0,0-2.842,1.219-3.451,3.045s-2.211,10.309-3.633,12.334c-1.42,2.029-3.039,6.289-2.842,8.721c0.203,2.439,0,14.605,0,14.605
		h8.521c0,0-0.609-16.83,0.406-19.266c1.014-2.432,2.328-10.941,2.125-13.475c-0.305-3.824,1.037-7.535,1.037-7.535L47.383,27.141z"
		/>
	
		<line style="fill:none;stroke:#5F5E5E;stroke-width:0.6239;stroke-linecap:round;stroke-miterlimit:10;" x1="39.584" y1="62.176" x2="43.838" y2="62.176"/>
	
		<line style="fill:none;stroke:#9D9D9C;stroke-width:0.6239;stroke-linecap:round;stroke-miterlimit:10;" x1="4.204" y1="31.981" x2="11.018" y2="29.709"/>
	
		<line style="fill:none;stroke:#9D9D9C;stroke-width:0.6239;stroke-linecap:round;stroke-miterlimit:10;" x1="75.885" y1="33.184" x2="65.461" y2="29.709"/>
	<circle style="fill:#FFFFFF;stroke:#000000;stroke-width:0.624;stroke-miterlimit:10;" cx="41.912" cy="47.807" r="1.552"/>
	<path style="fill:#808080;stroke:#000000;stroke-width:0.624;stroke-miterlimit:10;" d="M36.661,33.1c0,0-8.805,1.531-15.439-3.957
		c-6.635-5.486,0.637-5.104,0.637-5.104s3.24-0.08,4.609,0.744c1.371,0.822,2.578,1.645,3.674,1.754
		c1.098,0.109,4.662,0.109,5.375,1.754C36.229,29.938,36.708,32.37,36.661,33.1z"/>
	<path style="fill:#808080;stroke:#000000;stroke-width:0.624;stroke-miterlimit:10;" d="M22.739,20.231
		c0,0-1.205-3.783,6.855-3.729s9.924,0.439,14.42,0c4.496-0.438,12.668-0.383,10.584,2.688s8.334-5.703,1.699-8.389
		c-6.635-2.688-31.803-0.879-35.258-0.275S18.409,21.438,22.739,20.231z"/>
	<path style="fill:#808080;stroke:#000000;stroke-width:0.624;stroke-miterlimit:10;" d="M43.815,30.706c0,0,3.51-0.586,5.994-0.439
		c2.486,0.146,4.24-1.609,4.24-1.609s0.586-5.115-2.047-4.094c-2.631,1.023-7.367,3.789-8.07,5.623"/>
	<path style="fill:#808080;stroke:#000000;stroke-width:0.624;stroke-linejoin:round;stroke-miterlimit:10;" d="M45.717,27.965
		c0,0,5.955-3.211,7.879-6.961c1.93-3.756,7.516-9.943-2.125-9.943c-4.463,0-6.898,0.609-11.664,0.609
		c-4.463,0-13.486-0.102-16.125-0.197c-2.633-0.105-7.705,2.227,2.232,12.471c0.947,0.98,2.127,1.721,2.127,1.721
		s-2.229-2.229-4.258,0c-2.025,2.238-5.273,8.824-7.299,8.217c0,0-5.684-8.924-5.887-11.055c-0.203-2.133-0.502-2.938,0.512-3.244
		c1.012-0.305,3.244-4.061,3.854-5.277c0.609-1.213,1.416-5.775,8.922-5.982c7.506-0.203,11.562,0.105,15.719,0.105
		s12.068-0.406,14.301-0.51c2.23-0.1,5.168,0,7.707,4.666c0.477,0.875,3.242,5.883,4.562,6.592c1.318,0.713,0.506,4.463-0.504,5.781
		c-1.014,1.314-4.162,6.895-4.766,7.711c-0.613,0.807-1.016,2.531-1.629,2.125c-0.604-0.406-3.547-2.436-4.766-5.17
		c-1.213-2.742-2.35-5.518-4.785-3.791C47.29,27.553,45.969,27.834,45.717,27.965z"/>
	
		<ellipse transform="matrix(0.9521 -0.3058 0.3058 0.9521 -7.6579 11.6078)" style="fill:#FFFFFF;stroke:#000000;stroke-width:0.624;stroke-miterlimit:10;" cx="33.218" cy="30.245" rx="1.156" ry="1.475"/>
</g>
<rect y="0" style="fill:none;" width="80" height="80"/>
<g>
</g>
<g>
</g>
<g>
</g>
<g>
</g>
<g>
</g>
<g>
</g>
<g>
</g>
<g>
</g>
<g>
</g>
<g>
</g>
<g>
</g>
<g>
</g>
<g>
</g>
<g>
</g>
<g>
</g>
</svg>
